<svg xmlns="http://www.w3.org/2000/svg" viewBox="0 0 48 48" width="48" height="48">
  <path d="M23.49 12.3C23.49 11.25 23.27 10.12 22.78 9.31H22.78V9.31H22.78L22.78 9.3H22.77V9.29H22.78L22.77 9.29H22.77C22.44 9.29 22.14 9.43 21.9 9.67L21.9 9.67L21.9 9.68C21.73 9.91 21.58 10.22 21.52 10.57H21.51V10.57L21.5 10.57L21.5 10.58L21.5 10.58H21.51C21.35 10.83 21.23 11.11 21.12 11.36C20.81 11.73 20.43 12.04 20 12.04H17.27V12.04H16.64L16.63 12.03H16.62C16.39 12.02 16.16 12.14 16.02 12.31C15.83 12.53 15.75 12.79 15.75 13.05V14.32H14.58C14.18 14.32 13.81 14.62 13.67 14.98L13.67 14.98H13.67C13.54 15.35 13.36 15.67 13.13 15.87L13.13 15.87C13.05 15.91 12.96 15.93 12.88 15.96H12.88C12.8 15.98 12.73 16.01 12.66 16.01C12.56 16.01 12.46 16 12.37 15.99H12.36L12.36 15.99L12.36 15.98L12.36 15.98L12.36 15.97L12.36 15.97L12.36 15.97L12.36 15.97V15.97H12.36V15.96L12.36 15.96L12.36 15.96L12.36 15.96L12.36 15.96L12.36 15.96L12.36 15.96L12.36 15.96H12.36L12.36 15.96L12.36 15.96L12.36 15.96L12.36 15.96L12.36 15.96L12.36 15.96L12.36 15.96L12.36 15.96L12.36 15.96L12.36 15.96L12.36 15.96z" />
</svg>
